<svg width="60" height="60" viewBox="0 0 60 60" fill="none" xmlns="http://www.w3.org/2000/svg">
<g clip-path="url(#clip0_10_25)">
<path d="M4.0943 16.623C4.0943 9.14943 10.1528 3.09094 17.6263 3.09094C25.1 3.09094 31.1584 9.14943 31.1584 16.623C31.1584 24.0965 25.1 30.155 17.6263 30.155C10.1528 30.155 4.0943 24.0965 4.0943 16.623Z" fill="white"/>
<path d="M36.0789 16.623C36.0789 20.3144 34.9948 23.7526 33.1279 26.6367C35.5315 28.8227 38.725 30.155 42.2298 30.155C49.7034 30.155 55.7619 24.0965 55.7619 16.623C55.7619 9.14943 49.7034 3.09094 42.2298 3.09094C38.725 3.09094 35.5315 4.42331 33.1279 6.60917C34.9948 9.49334 36.0789 12.9316 36.0789 16.623Z" fill="white"/>
<path d="M0.403748 44.9173C0.403748 39.4821 4.80993 35.0758 10.2452 35.0758H25.0075C30.4427 35.0758 34.8489 39.4821 34.8489 44.9173V54.7588C34.8489 56.1176 33.7474 57.2191 32.3886 57.2191H2.86412C1.5053 57.2191 0.403748 56.1176 0.403748 54.7588V44.9173Z" fill="white"/>
<path d="M39.7697 44.9173V57.2191H56.9923C58.3509 57.2191 59.4526 56.1176 59.4526 54.7588V44.9173C59.4526 39.4821 55.0464 35.0758 49.6111 35.0758H36.0107C38.3481 37.6875 39.7697 41.1364 39.7697 44.9173Z" fill="white"/>
</g>
<defs>
<clipPath id="clip0_10_25">
<rect width="59.0489" height="59.0489" fill="white" transform="translate(0.403748 0.630615)"/>
</clipPath>
</defs>
</svg>
