<svg width="21" height="23" viewBox="0 0 21 23" fill="none" xmlns="http://www.w3.org/2000/svg">
<path fill-rule="evenodd" clip-rule="evenodd" d="M1.91339 4.80895L1.91357 4.80274C1.92505 4.4584 2.0176 4.10301 2.17116 3.7959C2.29379 3.55064 2.46272 3.33447 2.6982 3.17749C2.92769 3.02449 3.27668 2.88971 3.82679 2.88971C4.37691 2.88971 4.72589 3.02449 4.95537 3.17749C5.25098 3.37456 5.4457 3.67497 5.56584 3.98491C4.99551 4.13464 4.5216 4.39851 4.13824 4.74074C3.54388 5.27133 3.23583 5.92825 3.07399 6.45018C2.88979 7.0442 3.05432 7.62306 3.41315 8.02753C3.75753 8.4157 4.26173 8.62989 4.78348 8.62989H8.61027C9.13205 8.62989 9.63623 8.4157 9.98064 8.02753C10.3394 7.62306 10.504 7.0442 10.3198 6.45018C10.1579 5.92825 9.84986 5.27133 9.25556 4.74074C8.80964 4.3427 8.24128 4.05066 7.54118 3.92093C7.47516 3.63175 7.3683 3.2892 7.19381 2.94022C6.95768 2.46796 6.58847 1.9666 6.01674 1.58545C5.43902 1.2003 4.71172 0.976318 3.82679 0.976318C2.94186 0.976318 2.21456 1.2003 1.63683 1.58545C1.0651 1.9666 0.695891 2.46796 0.45976 2.94022C0.225512 3.40872 0.113149 3.86565 0.057861 4.19737C0.0248263 4.39558 0.00121502 4.59757 9.57996e-06 4.79882L0 12.4567C0.000105237 12.5434 0.00196128 12.629 0.00826591 12.7835C0.0163404 12.9811 0.0323364 13.2602 0.0640987 13.5938C0.127212 14.2564 0.25452 15.1557 0.515162 16.0679C0.772619 16.969 1.17996 17.9542 1.84474 18.7297C2.53384 19.5337 3.50341 20.1103 4.78348 20.1103V21.0669C4.78348 21.5953 5.21181 22.0236 5.74018 22.0236C6.26855 22.0236 6.69688 21.5953 6.69688 21.0669V20.1103H14.3504V21.0669C14.3504 21.5953 14.7788 22.0236 15.3071 22.0236C15.8355 22.0236 16.2638 21.5953 16.2638 21.0669V20.1103C18.2613 20.1103 19.4215 18.7383 20.0525 17.3771C20.681 16.021 20.9071 14.4535 20.9924 13.4939C21.0932 12.3595 20.1741 11.5 19.1339 11.5H1.91339V4.80895ZM1.96898 13.4134C2.02548 14.0062 2.13734 14.7807 2.35493 15.5423C2.57582 16.3154 2.886 17.0044 3.2975 17.4846C3.68469 17.9363 4.15016 18.1969 4.78348 18.1969H16.2638C17.1849 18.1969 17.8304 17.621 18.3165 16.5724C18.7889 15.5531 18.9939 14.2993 19.0783 13.4134H1.96898ZM7.98128 6.16811C8.15226 6.32074 8.28118 6.51142 8.37695 6.7165H5.0168C5.11257 6.51142 5.24149 6.32074 5.41247 6.16811C5.64609 5.95956 6.026 5.7598 6.69688 5.7598C7.36775 5.7598 7.74767 5.95956 7.98128 6.16811Z" fill="#8B8B8B"/>
</svg>
