<svg width="69" height="78" viewBox="0 0 69 78" fill="none" xmlns="http://www.w3.org/2000/svg">
<path d="M5.75006 52C5.75006 42.8077 5.75006 38.2116 8.27627 35.3558C10.8025 32.5 14.8683 32.5 23.0001 32.5H46.0001C54.1317 32.5 58.1975 32.5 60.7238 35.3558C63.2501 38.2116 63.2501 42.8077 63.2501 52C63.2501 61.1923 63.2501 65.7884 60.7238 68.6442C58.1975 71.5 54.1317 71.5 46.0001 71.5H23.0001C14.8683 71.5 10.8025 71.5 8.27627 68.6442C5.75006 65.7884 5.75006 61.1923 5.75006 52Z" stroke="white" stroke-width="4.875"/>
<path d="M17.25 32.5V26C17.25 15.2304 24.9731 6.5 34.5 6.5C44.0269 6.5 51.75 15.2304 51.75 26V32.5" stroke="white" stroke-width="4.875" stroke-linecap="round"/>
</svg>
