<svg width="24" height="19" viewBox="0 0 24 19" fill="none" xmlns="http://www.w3.org/2000/svg">
<path d="M2 1.625V17.375M2 14H22.25M22.25 17.375V10.85C22.25 9.58989 22.25 8.95977 22.0047 8.4785C21.7891 8.05516 21.4448 7.71091 21.0215 7.49525C20.5402 7.25 19.9101 7.25 18.65 7.25H11V13.6932M6.5 9.5H6.51125M7.625 9.5C7.625 10.1213 7.12132 10.625 6.5 10.625C5.87868 10.625 5.375 10.1213 5.375 9.5C5.375 8.87866 5.87868 8.375 6.5 8.375C7.12132 8.375 7.625 8.87866 7.625 9.5Z" stroke="#8B8B8B" stroke-width="2.25" stroke-linecap="round" stroke-linejoin="round"/>
</svg>
