<svg width="33" height="30" viewBox="0 0 33 30" fill="none" xmlns="http://www.w3.org/2000/svg">
<path fill-rule="evenodd" clip-rule="evenodd" d="M16.5 3.60927C13.2011 -0.235261 7.68858 -1.42339 3.55525 2.09705C-0.578088 5.61749 -1.16001 11.5034 2.08593 15.6671C4.78471 19.1288 12.9521 26.4301 15.629 28.7932C15.9284 29.0576 16.0781 29.1898 16.2529 29.2417C16.4052 29.287 16.572 29.287 16.7246 29.2417C16.8993 29.1898 17.0489 29.0576 17.3485 28.7932C20.0253 26.4301 28.1926 19.1288 30.8915 15.6671C34.1374 11.5034 33.6264 5.58046 29.4221 2.09705C25.2177 -1.38636 19.7989 -0.235261 16.5 3.60927Z" fill="white"/>
<path fill-rule="evenodd" clip-rule="evenodd" d="M16.5 3.60927C13.2011 -0.235261 7.68858 -1.42339 3.55525 2.09705C-0.578088 5.61749 -1.16001 11.5034 2.08593 15.6671C4.78471 19.1288 12.9521 26.4301 15.629 28.7932C15.9284 29.0576 16.0781 29.1898 16.2529 29.2417C16.4052 29.287 16.572 29.287 16.7246 29.2417C16.8993 29.1898 17.0489 29.0576 17.3485 28.7932C20.0253 26.4301 28.1926 19.1288 30.8915 15.6671C34.1374 11.5034 33.6264 5.58046 29.4221 2.09705C25.2177 -1.38636 19.7989 -0.235261 16.5 3.60927Z" fill="white"/>
</svg>
