<svg width="66" height="66" viewBox="0 0 66 66" fill="none" xmlns="http://www.w3.org/2000/svg">
<path d="M58.2548 60.6196V27.9401H7.74534V60.6196C6.14471 60.6196 5.03366 61.8365 5.03366 63.3097C5.03366 64.783 6.18415 65.9999 7.65768 65.9999H58.3424C59.8157 65.9999 60.9664 64.783 60.9664 63.3097C60.9664 61.8365 59.8555 60.6196 58.2548 60.6196ZM38.5133 60.6646H27.3087V45.5183C27.3087 44.3243 28.3659 43.4131 29.5599 43.4131H36.4399C37.634 43.4131 38.5133 44.3243 38.5133 45.5183V60.6646Z" fill="#181F37"/>
<path d="M58.2547 20.2927H7.74509V24.3833H58.2547V20.2927Z" fill="#181F37"/>
<path d="M11.1243 0.728958V7.81418L17.8826 4.37817V0.728958H11.1243Z" fill="#181F37"/>
<path d="M59.4294 15.7284L32.5487 0L6.37111 15.7316C6.1374 15.8721 6.0558 16.0764 6.12864 16.3395C6.2016 16.6024 6.37678 16.7357 6.64942 16.7357H59.1563C59.4307 16.7357 59.6063 16.6014 59.6781 16.3366C59.7497 16.0717 59.6661 15.867 59.4294 15.7284ZM32.6145 12.6996C30.9801 12.6996 29.6551 11.3746 29.6551 9.74005C29.6551 8.10564 30.9801 6.78061 32.6145 6.78061C34.2489 6.78061 35.574 8.10564 35.574 9.74005C35.574 11.3745 34.2489 12.6996 32.6145 12.6996Z" fill="#181F37"/>
</svg>
