<svg width="124" height="123" viewBox="0 0 124 123" fill="none" xmlns="http://www.w3.org/2000/svg">
<g clip-path="url(#clip0_15_970)">
<path d="M29.8973 33.1085L26.2317 36.7741C25.2679 37.7382 25.2679 39.3011 26.2317 40.2655C26.7139 40.7477 27.3459 40.9886 27.9774 40.9886C28.6092 40.9886 29.2412 40.7477 29.7229 40.2655L33.3885 36.5999C34.3526 35.6358 34.3526 34.0728 33.3885 33.1085C32.4248 32.1444 30.8617 32.1446 29.8973 33.1085Z" fill="white"/>
<path d="M17.5039 45.502L15.2469 47.7589C14.2828 48.7228 14.2828 50.286 15.2469 51.2501C15.7291 51.7323 16.3609 51.9733 16.9924 51.9733C17.6242 51.9733 18.2562 51.7323 18.7379 51.2501L20.9949 48.9931C21.9587 48.0293 21.9587 46.4661 20.9949 45.502C20.031 44.5381 18.468 44.5381 17.5039 45.502Z" fill="white"/>
<path d="M122.336 44.7484L93.7205 16.1333C92.7564 15.1694 91.1932 15.1694 90.2294 16.1333L78.6259 27.7368C78.1631 28.1996 77.9028 28.8276 77.9028 29.4822C77.9028 30.1369 78.1631 30.7648 78.6259 31.2277L79.5998 32.2016L76.1399 35.6615C74.9076 36.8938 73.3566 37.6172 71.2683 37.9307L51.5933 37.9581C50.2372 37.9581 48.9801 38.3926 47.9504 39.1279L46.3875 37.5652L47.353 36.5996C47.8159 36.1368 48.0761 35.5088 48.0761 34.8541C48.0761 34.1995 47.8159 33.5715 47.353 33.1087L33.7335 19.4894C32.7699 18.5253 31.2065 18.5253 30.2424 19.4894L1.6275 48.1043C1.16465 48.5672 0.904358 49.1951 0.904358 49.8498C0.904358 50.5044 1.16465 51.1324 1.6275 51.5952L15.247 65.2147C15.7292 65.6969 16.3609 65.9379 16.9924 65.9379C17.6242 65.9379 18.2562 65.6969 18.7379 65.2147L19.5524 64.4002L23.176 68.024C24.372 69.2198 25.297 70.6227 25.9252 72.193L26.0653 72.5428C26.943 74.738 28.2359 76.6982 29.9074 78.3697L57.6543 106.117C59.0662 107.528 60.9209 108.235 62.7759 108.235C64.6309 108.235 66.4854 107.529 67.8976 106.117C68.6076 105.406 69.1406 104.585 69.4961 103.708C72.1506 104.873 75.3662 104.371 77.5365 102.201C78.1852 101.552 78.6968 100.801 79.0563 99.985C81.8012 101.47 85.3103 101.054 87.6274 98.7367C89.9469 96.4172 90.3704 92.9086 88.8983 90.1549C89.6878 89.8073 90.426 89.3113 91.0701 88.6674C91.0728 88.6647 91.0885 88.649 91.0911 88.6464C93.9291 85.8084 93.9291 81.1907 91.0911 78.3527L90.9119 78.1735L95.5798 73.5059C96.9679 72.1176 98.9369 69.6268 99.9106 67.1918L100.059 66.8275C100.686 65.2617 101.611 63.8598 102.811 62.6602L106.435 59.0364L107.241 59.8428C107.704 60.3056 108.332 60.5659 108.987 60.5659C109.641 60.5659 110.269 60.3056 110.732 59.8428L122.336 48.2393C123.3 47.2757 123.3 45.7125 122.336 44.7484ZM17.807 59.1635C17.8058 59.1647 17.8046 59.1664 17.8029 59.1678L16.9922 59.9785L6.86415 49.8498L31.9881 24.7258L42.1166 34.8541L41.1551 35.8156C41.1539 35.8168 41.1523 35.818 41.1508 35.8195L17.807 59.1635ZM87.6085 85.1471C87.6059 85.1497 87.5902 85.1652 87.5875 85.1681C86.6805 86.0752 85.2478 86.0642 84.3268 85.1425C84.1858 85.0015 69.894 70.8097 69.894 70.8097C69.6206 70.5365 69.2983 70.3433 68.9557 70.2252C68.317 70.0045 67.6068 70.0505 67.0003 70.3693C66.7853 70.4824 66.5832 70.6291 66.4026 70.8097C65.8606 71.352 65.6232 72.0837 65.6909 72.7921C65.6986 72.8708 65.7098 72.9491 65.7248 73.0269C65.7549 73.1824 65.8002 73.3356 65.8603 73.4842C65.9808 73.7815 66.1614 74.0599 66.4024 74.3009C66.4024 74.3009 84.2925 92.1721 84.3958 92.2475C85.0361 93.1608 84.951 94.4313 84.1357 95.246C83.2368 96.1452 81.7738 96.1452 80.875 95.246L61.7608 76.232C61.5802 76.0514 61.3781 75.9044 61.1631 75.7913C60.2317 75.3017 59.0526 75.4487 58.2693 76.232C57.687 76.8144 57.4591 77.6145 57.5801 78.3697C57.6593 78.8652 57.8874 79.3412 58.2693 79.7229L74.4009 95.8542C74.9389 96.7489 74.821 97.9332 74.0449 98.7093C73.6092 99.1449 73.0302 99.3847 72.4144 99.3847C71.7986 99.3847 71.2196 99.1447 70.7842 98.7093L53.0255 81.0508C52.0614 80.087 50.4985 80.087 49.5341 81.0508C49.474 81.1112 49.4175 81.1737 49.3647 81.2384C48.5738 82.208 48.6304 83.6383 49.5341 84.542L64.7624 99.77C65.3004 100.665 65.1823 101.849 64.4062 102.625C63.5072 103.524 62.0442 103.524 61.1455 102.625L33.3986 74.878C32.2026 73.682 31.2776 72.2794 30.6496 70.709L30.5096 70.359C29.6316 68.1641 28.3389 66.2039 26.6674 64.5324L23.0438 60.9085L42.8965 41.0561L45.3461 43.5054C45.3169 43.7475 45.3 43.9933 45.2991 44.2431C45.2991 44.2643 45.2991 44.2858 45.2995 44.3073C45.4171 49.4024 49.6131 53.5478 54.6644 53.5478L59.2836 53.5275L87.6002 81.8444C88.513 82.7572 88.513 84.2426 87.6085 85.1471ZM99.3196 59.1712C97.6447 60.846 96.3514 62.8072 95.4822 64.9809L95.3334 65.3483C94.7727 66.75 93.4385 68.6777 92.0886 70.0276L87.4325 74.6945L74.3133 61.5754C78.8762 61.4704 81.4784 60.177 81.6316 60.0988L79.3829 55.7034L79.4073 55.691C79.3686 55.7096 75.5511 57.4975 68.8669 56.1288L62.0509 49.3127L62.0287 49.3223C61.5697 48.8842 60.9589 48.6833 60.3221 48.6833C60.3185 48.6833 60.315 48.6833 60.3116 48.6833L54.6543 48.6597C52.2862 48.6597 50.3126 46.6501 50.2375 44.2319C50.2542 43.5049 50.8695 42.8958 51.5972 42.8958L71.4503 42.8681C71.5624 42.8681 71.6746 42.8603 71.7853 42.845C75.03 42.396 77.5964 41.1883 79.6313 39.1534L83.0915 35.6937L102.944 55.5469L99.3196 59.1712ZM108.987 54.6064L108.182 53.8012C108.181 53.8007 108.181 53.8005 108.18 53.8L84.8367 30.4564C84.8362 30.4559 84.836 30.4556 84.8355 30.4552L83.8628 29.4825L91.9751 21.3702L117.099 46.4939L108.987 54.6064Z" fill="white"/>
</g>
<defs>
<clipPath id="clip0_15_970">
<rect width="122.154" height="122.154" fill="white" transform="translate(0.904327 0.745605)"/>
</clipPath>
</defs>
</svg>
