<svg width="338" height="145" viewBox="0 0 338 145" fill="none" xmlns="http://www.w3.org/2000/svg">
<g clip-path="url(#clip0_15_1039)">
<path d="M25.2828 113.946C26.6319 115.858 27.9325 117.395 29.7019 119.741C20.8349 130.154 13.5645 118.209 25.2828 113.946ZM41.9506 110.548C44.2327 107.146 46.7968 102.373 41.6505 99.6873C39.0574 98.6782 35.7123 99.9074 31.9636 103.492C29.9029 105.463 27.8368 108.828 26.9443 111.095C26.4176 112.767 26.3251 112.574 26.6218 113.178C28.1829 114.948 29.6928 116.75 31.2299 118.585C34.1163 118.618 40.8676 112.592 41.9506 110.548ZM27.7754 99.902C29.6499 98.3448 32.2001 95.3304 33.4282 92.7571C35.6617 88.0759 35.7836 84.5137 34.0137 82.3662C29.854 78.3174 26.1218 82.2451 23.604 85.4765C22.0011 87.144 18.3874 95.4415 19.3219 98.1726C21.5453 99.0589 23.7278 99.9302 25.8979 100.86C26.5642 100.952 26.3518 100.925 27.7754 99.902ZM18.7004 99.9855C11.5815 111.663 25.2003 114.835 25.5864 102.371C23.3483 101.688 21.4817 100.933 18.7004 99.9855Z" fill="#F8824E"/>
</g>
<g clip-path="url(#clip1_15_1039)">
<path d="M54.6883 77.189C56.0374 79.1011 57.338 80.6383 59.1074 82.9841C50.2405 93.3968 42.9701 81.4523 54.6883 77.189ZM71.3561 73.7907C73.6383 70.389 76.2023 65.6159 71.056 62.9305C68.4629 61.9213 65.1179 63.1506 61.3691 66.735C59.3084 68.7061 57.2424 72.0709 56.3498 74.3383C55.8231 76.0102 55.7306 75.817 56.0273 76.4216C57.5885 78.1915 59.0983 79.9928 60.6355 81.8278C63.5218 81.8612 70.2731 75.8348 71.3561 73.7907ZM57.181 63.1452C59.0554 61.588 61.6057 58.5735 62.8338 56.0003C65.0672 51.3191 65.1892 47.7568 63.4192 45.6093C59.2596 41.5606 55.5273 45.4882 53.0095 48.7196C51.4067 50.3871 47.793 58.6846 48.7274 61.4158C50.9508 62.3021 53.1333 63.1733 55.3034 64.1029C55.9697 64.1956 55.7574 64.168 57.181 63.1452ZM48.1059 63.2287C40.987 74.9062 54.6058 78.0779 54.9919 65.6144C52.7539 64.9308 50.8873 64.176 48.1059 63.2287Z" fill="#F8824E"/>
</g>
<g clip-path="url(#clip2_15_1039)">
<path d="M89.0145 39.2493C89.4129 41.7178 89.9405 43.8037 90.539 46.8859C77.1418 52.724 75.7642 37.846 89.0145 39.2493ZM106.611 43.8047C110.398 41.6092 115.098 38.2292 111.417 33.2372C109.401 31.052 105.613 30.6632 100.332 32.3462C97.4291 33.2721 93.8673 35.5335 91.9468 37.2917C90.657 38.6498 90.6587 38.4209 90.66 39.1406C91.3287 41.5721 91.9334 44.0098 92.5484 46.4925C95.304 47.8784 104.612 45.2592 106.611 43.8047ZM97.995 26.9352C100.525 26.3193 104.387 24.6214 106.773 22.7269C111.114 19.2801 112.901 15.9173 112.209 13.0253C110.115 7.18703 104.689 9.20732 100.756 11.1288C98.4353 11.9779 91.0739 18.2492 90.69 21.3096C92.4089 23.2034 94.0957 25.0636 95.7431 26.974C96.3394 27.3755 96.1484 27.2494 97.995 26.9352ZM89.2429 22.7587C76.9308 30.631 88.5184 40.064 94.7351 28.279C92.907 26.573 91.4689 24.9728 89.2429 22.7587Z" fill="#F8824E"/>
</g>
<g clip-path="url(#clip3_15_1039)">
<path d="M139.364 36.6456C137.932 38.6957 136.86 40.5609 135.145 43.191C121.461 38.0614 130.824 26.4176 139.364 36.6456ZM148.832 52.1618C153.079 53.2199 158.807 54.0633 159.637 47.9165C159.709 44.9441 157.259 42.0288 152.296 39.5632C149.567 38.2081 145.435 37.3537 142.832 37.2801C140.961 37.358 141.121 37.1948 140.621 37.7126C139.41 39.9241 138.148 42.0956 136.862 44.3067C137.877 47.2194 146.384 51.8157 148.832 52.1618ZM154.382 34.0508C156.628 35.369 160.583 36.8372 163.615 37.1369C169.131 37.6815 172.755 36.5105 174.27 33.952C176.829 28.3015 171.526 25.9771 167.364 24.6202C165.107 23.615 155.456 22.9966 153.051 24.9274C152.967 27.4836 152.884 29.9933 152.738 32.5117C152.887 33.215 152.838 32.9915 154.382 34.0508ZM151.003 24.9612C136.683 22.0476 138.441 36.8855 151.106 32.7475C150.98 30.2502 151.061 28.1003 151.003 24.9612Z" fill="#F8824E"/>
</g>
<g clip-path="url(#clip4_15_1039)">
<path d="M257.604 123.447C258.303 125.848 259.083 127.853 260.056 130.839C247.478 138.279 244.282 123.683 257.604 123.447ZM275.627 125.806C279.115 123.161 283.365 119.229 279.098 114.727C276.828 112.807 273.021 112.886 267.988 115.206C265.22 116.481 261.963 119.163 260.274 121.144C259.16 122.65 259.134 122.423 259.224 123.137C260.186 125.468 261.086 127.813 262.001 130.201C264.906 131.238 273.822 127.495 275.627 125.806ZM265.003 110.123C267.438 109.201 271.063 107.041 273.198 104.868C277.081 100.914 278.442 97.3564 277.4 94.5714C274.604 89.0348 269.468 91.7066 265.801 94.0969C263.602 95.2248 257.067 102.353 257.062 105.438C259.001 107.106 260.903 108.745 262.773 110.438C263.414 110.763 263.209 110.662 265.003 110.123ZM255.804 107.054C244.553 116.379 257.212 124.317 261.933 111.857C259.909 110.389 258.285 108.977 255.804 107.054Z" fill="#F8824E"/>
</g>
<g clip-path="url(#clip5_15_1039)">
<path d="M298.051 99.5701C298.752 101.97 299.534 103.975 300.51 106.959C287.939 114.412 284.729 99.8192 298.051 99.5701ZM316.076 101.91C319.562 99.2625 323.807 95.3262 319.536 90.8287C317.264 88.9101 313.457 88.9936 308.426 91.3179C305.66 92.5963 302.406 95.2817 300.718 97.2643C299.606 98.7717 299.58 98.5444 299.67 99.2583C300.635 101.588 301.537 103.932 302.455 106.32C305.361 107.353 314.273 103.601 316.076 101.91ZM305.437 86.2382C307.871 85.3136 311.493 83.1502 313.626 80.9747C317.506 77.0167 318.863 73.4583 317.818 70.6743C315.016 65.1406 309.883 67.8175 306.218 70.2114C304.02 71.3416 297.493 78.4766 297.491 81.561C299.431 83.2273 301.335 84.8642 303.207 86.5557C303.848 86.8802 303.643 86.7788 305.437 86.2382ZM296.234 83.1782C284.993 92.5153 297.66 100.44 302.368 87.9756C300.343 86.5091 298.718 85.0994 296.234 83.1782Z" fill="#F8824E"/>
</g>
<g clip-path="url(#clip6_15_1039)">
<path d="M215.128 103.468C214.334 105.839 213.832 107.931 212.931 110.939C198.355 109.886 204.045 96.0703 215.128 103.468ZM228.595 115.675C232.968 115.49 238.701 114.68 237.76 108.549C236.989 105.677 233.815 103.574 228.357 102.611C225.356 102.083 221.151 102.431 218.634 103.096C216.861 103.7 216.969 103.498 216.636 104.136C216.098 106.6 215.502 109.039 214.893 111.524C216.69 114.031 226.15 116.035 228.595 115.675ZM228.8 96.7338C231.327 97.3636 235.536 97.654 238.529 97.0845C243.974 96.0481 247.119 93.9004 247.85 91.0179C248.706 84.8748 242.963 84.1438 238.588 84.0186C236.138 83.6925 226.706 85.8269 224.944 88.3588C225.587 90.8344 226.217 93.2652 226.788 95.7223C227.13 96.3548 227.019 96.1544 228.8 96.7338ZM222.99 88.97C208.43 90.2227 214.31 103.959 225.289 96.4097C224.463 94.0498 223.933 91.9647 222.99 88.97Z" fill="#F8824E"/>
<g clip-path="url(#clip7_15_1039)">
<path d="M215.128 103.468C214.334 105.839 213.832 107.931 212.931 110.939C198.355 109.886 204.045 96.0703 215.128 103.468ZM228.595 115.675C232.968 115.49 238.701 114.68 237.76 108.549C236.989 105.677 233.815 103.574 228.357 102.611C225.356 102.083 221.151 102.431 218.634 103.096C216.861 103.7 216.969 103.498 216.636 104.136C216.098 106.6 215.502 109.039 214.893 111.524C216.69 114.031 226.15 116.035 228.595 115.675ZM228.8 96.7338C231.327 97.3636 235.536 97.654 238.529 97.0845C243.974 96.0481 247.119 93.9004 247.85 91.0179C248.706 84.8748 242.963 84.1438 238.588 84.0186C236.138 83.6925 226.706 85.8269 224.944 88.3588C225.587 90.8344 226.217 93.2652 226.788 95.7223C227.13 96.3548 227.019 96.1544 228.8 96.7338ZM222.99 88.97C208.43 90.2227 214.31 103.959 225.289 96.4097C224.463 94.0498 223.933 91.9647 222.99 88.97Z" fill="#F8824E"/>
<g clip-path="url(#clip8_15_1039)">
<path d="M215.128 103.468C214.334 105.839 213.832 107.931 212.931 110.939C198.355 109.886 204.045 96.0703 215.128 103.468ZM228.595 115.675C232.968 115.49 238.701 114.68 237.76 108.549C236.989 105.677 233.815 103.574 228.357 102.611C225.356 102.083 221.151 102.431 218.634 103.096C216.861 103.7 216.969 103.498 216.636 104.136C216.098 106.6 215.502 109.039 214.893 111.524C216.69 114.031 226.15 116.035 228.595 115.675ZM228.8 96.7338C231.327 97.3636 235.536 97.654 238.529 97.0845C243.974 96.0481 247.119 93.9004 247.85 91.0179C248.706 84.8748 242.963 84.1438 238.588 84.0186C236.138 83.6925 226.706 85.8269 224.944 88.3588C225.587 90.8344 226.217 93.2652 226.788 95.7223C227.13 96.3548 227.019 96.1544 228.8 96.7338ZM222.99 88.97C208.43 90.2227 214.31 103.959 225.289 96.4097C224.463 94.0498 223.933 91.9647 222.99 88.97Z" fill="#F8824E"/>
<g clip-path="url(#clip9_15_1039)">
<path d="M215.128 103.468C214.334 105.839 213.832 107.931 212.931 110.939C198.355 109.886 204.045 96.0703 215.128 103.468ZM228.595 115.675C232.968 115.49 238.701 114.68 237.76 108.549C236.989 105.677 233.815 103.574 228.357 102.611C225.356 102.083 221.151 102.431 218.634 103.096C216.861 103.7 216.969 103.498 216.636 104.136C216.098 106.6 215.502 109.039 214.893 111.524C216.69 114.031 226.15 116.035 228.595 115.675ZM228.8 96.7338C231.327 97.3636 235.536 97.654 238.529 97.0845C243.974 96.0481 247.119 93.9004 247.85 91.0179C248.706 84.8748 242.963 84.1438 238.588 84.0186C236.138 83.6925 226.706 85.8269 224.944 88.3588C225.587 90.8344 226.217 93.2652 226.788 95.7223C227.13 96.3548 227.019 96.1544 228.8 96.7338ZM222.99 88.97C208.43 90.2227 214.31 103.959 225.289 96.4097C224.463 94.0498 223.933 91.9647 222.99 88.97Z" fill="#F8824E"/>
<g clip-path="url(#clip10_15_1039)">
<path d="M215.128 103.468C214.334 105.839 213.832 107.931 212.931 110.939C198.355 109.886 204.045 96.0703 215.128 103.468ZM228.595 115.675C232.968 115.49 238.701 114.68 237.76 108.549C236.989 105.677 233.815 103.574 228.357 102.611C225.356 102.083 221.151 102.431 218.634 103.096C216.861 103.7 216.969 103.498 216.636 104.136C216.098 106.6 215.502 109.039 214.893 111.524C216.69 114.031 226.15 116.035 228.595 115.675ZM228.8 96.7338C231.327 97.3636 235.536 97.654 238.529 97.0845C243.974 96.0481 247.119 93.9004 247.85 91.0179C248.706 84.8748 242.963 84.1438 238.588 84.0186C236.138 83.6925 226.706 85.8269 224.944 88.3588C225.587 90.8344 226.217 93.2652 226.788 95.7223C227.13 96.3548 227.019 96.1544 228.8 96.7338ZM222.99 88.97C208.43 90.2227 214.31 103.959 225.289 96.4097C224.463 94.0498 223.933 91.9647 222.99 88.97Z" fill="#F8824E"/>
</g>
</g>
</g>
</g>
</g>
<g clip-path="url(#clip11_15_1039)">
<path d="M180.219 62.1336C177.939 63.1605 176.062 64.2127 173.242 65.5924C164.119 54.1754 178.126 48.9745 180.219 62.1336ZM180.398 80.3094C183.503 83.3944 187.99 87.0537 191.852 82.2005C193.437 79.6852 192.827 75.9263 189.828 71.2656C188.179 68.7034 185.069 65.8526 182.872 64.4557C181.225 63.5636 181.446 63.5057 180.752 63.6942C178.578 64.9724 176.381 66.1905 174.144 67.4303C173.523 70.4515 178.474 78.758 180.398 80.3094ZM194.445 67.6011C195.698 69.8839 198.342 73.1715 200.792 74.9825C205.25 78.2764 208.962 79.1279 211.574 77.7073C216.666 74.166 213.304 69.4529 210.426 66.1552C209.002 64.135 201.031 58.6586 197.976 59.0841C196.595 61.2366 195.238 63.3492 193.822 65.437C193.589 66.1171 193.661 65.9 194.445 67.6011ZM196.201 58.0639C185.396 48.2239 179.303 61.8665 192.299 64.8031C193.471 62.5942 194.642 60.7893 196.201 58.0639Z" fill="#F8824E"/>
</g>
<defs>
<clipPath id="clip0_15_1039">
<rect width="41.0411" height="43.7001" fill="white" transform="translate(25.6192 72.9006) rotate(35.891)"/>
</clipPath>
<clipPath id="clip1_15_1039">
<rect width="41.0411" height="43.7001" fill="white" transform="translate(55.0245 36.144) rotate(35.891)"/>
</clipPath>
<clipPath id="clip2_15_1039">
<rect width="43.8541" height="46.6954" fill="white" transform="translate(108.59) rotate(61.9289)"/>
</clipPath>
<clipPath id="clip3_15_1039">
<rect width="43.8541" height="46.6954" fill="white" transform="translate(180.734 22.0786) rotate(106.024)"/>
</clipPath>
<clipPath id="clip4_15_1039">
<rect width="43.8541" height="46.6954" fill="white" transform="translate(272.207 82.0898) rotate(54.8693)"/>
</clipPath>
<clipPath id="clip5_15_1039">
<rect width="43.8541" height="46.6954" fill="white" transform="translate(312.612 58.198) rotate(54.8117)"/>
</clipPath>
<clipPath id="clip6_15_1039">
<rect width="43.8541" height="46.6954" fill="white" transform="translate(250.694 77.8018) rotate(89.6059)"/>
</clipPath>
<clipPath id="clip7_15_1039">
<rect width="43.8541" height="46.6954" fill="white" transform="translate(250.694 77.8018) rotate(89.6059)"/>
</clipPath>
<clipPath id="clip8_15_1039">
<rect width="43.8541" height="46.6954" fill="white" transform="translate(250.694 77.8018) rotate(89.6059)"/>
</clipPath>
<clipPath id="clip9_15_1039">
<rect width="43.8541" height="46.6954" fill="white" transform="translate(250.694 77.8018) rotate(89.6059)"/>
</clipPath>
<clipPath id="clip10_15_1039">
<rect width="43.8541" height="46.6954" fill="white" transform="translate(250.694 77.8018) rotate(89.6059)"/>
</clipPath>
<clipPath id="clip11_15_1039">
<rect width="43.8541" height="46.6954" fill="white" transform="translate(223.209 70.8235) rotate(136.849)"/>
</clipPath>
</defs>
</svg>
