<svg width="338" height="145" viewBox="0 0 338 145" fill="none" xmlns="http://www.w3.org/2000/svg">
<g clip-path="url(#clip0_15_1015)">
<path d="M312.601 113.946C311.252 115.858 309.951 117.395 308.182 119.741C317.049 130.154 324.319 118.209 312.601 113.946ZM295.933 110.548C293.651 107.146 291.087 102.373 296.233 99.6873C298.826 98.6782 302.172 99.9074 305.92 103.492C307.981 105.463 310.047 108.828 310.94 111.095C311.466 112.767 311.559 112.574 311.262 113.178C309.701 114.948 308.191 116.75 306.654 118.585C303.768 118.618 297.016 112.592 295.933 110.548ZM310.108 99.902C308.234 98.3448 305.684 95.3304 304.456 92.7571C302.222 88.0759 302.1 84.5137 303.87 82.3662C308.03 78.3174 311.762 82.2451 314.28 85.4765C315.883 87.144 319.496 95.4415 318.562 98.1726C316.339 99.0589 314.156 99.9302 311.986 100.86C311.32 100.952 311.532 100.925 310.108 99.902ZM319.183 99.9855C326.302 111.663 312.684 114.835 312.297 102.371C314.536 101.688 316.402 100.933 319.183 99.9855Z" fill="#F8824E"/>
</g>
<g clip-path="url(#clip1_15_1015)">
<path d="M283.195 77.189C281.846 79.1011 280.546 80.6383 278.776 82.9841C287.643 93.3968 294.914 81.4523 283.195 77.189ZM266.528 73.7907C264.246 70.389 261.682 65.6159 266.828 62.9305C269.421 61.9213 272.766 63.1506 276.515 66.735C278.575 68.7061 280.641 72.0709 281.534 74.3383C282.061 76.0102 282.153 75.817 281.856 76.4216C280.295 78.1915 278.785 79.9928 277.248 81.8278C274.362 81.8612 267.611 75.8348 266.528 73.7907ZM280.703 63.1452C278.828 61.588 276.278 58.5735 275.05 56.0003C272.817 51.3191 272.695 47.7568 274.465 45.6093C278.624 41.5606 282.356 45.4882 284.874 48.7196C286.477 50.3871 290.091 58.6846 289.156 61.4158C286.933 62.3021 284.75 63.1733 282.58 64.1029C281.914 64.1956 282.126 64.168 280.703 63.1452ZM289.778 63.2287C296.897 74.9062 283.278 78.0779 282.892 65.6144C285.13 64.9308 286.997 64.176 289.778 63.2287Z" fill="#F8824E"/>
</g>
<g clip-path="url(#clip2_15_1015)">
<path d="M248.869 39.2493C248.471 41.7178 247.943 43.8037 247.345 46.8859C260.742 52.724 262.119 37.846 248.869 39.2493ZM231.273 43.8047C227.486 41.6092 222.786 38.2292 226.467 33.2372C228.483 31.052 232.271 30.6632 237.552 32.3462C240.455 33.2721 244.016 35.5335 245.937 37.2917C247.227 38.6498 247.225 38.4209 247.224 39.1406C246.555 41.5721 245.95 44.0098 245.335 46.4925C242.58 47.8784 233.271 45.2592 231.273 43.8047ZM239.889 26.9352C237.359 26.3193 233.496 24.6214 231.11 22.7269C226.77 19.2801 224.982 15.9173 225.674 13.0253C227.769 7.18703 233.194 9.20732 237.127 11.1288C239.448 11.9779 246.81 18.2492 247.194 21.3096C245.475 23.2034 243.788 25.0636 242.141 26.974C241.544 27.3755 241.735 27.2494 239.889 26.9352ZM248.641 22.7587C260.953 30.631 249.365 40.064 243.149 28.279C244.977 26.573 246.415 24.9728 248.641 22.7587Z" fill="#F8824E"/>
</g>
<g clip-path="url(#clip3_15_1015)">
<path d="M198.52 36.6456C199.951 38.6957 201.024 40.5609 202.739 43.191C216.423 38.0614 207.059 26.4176 198.52 36.6456ZM189.052 52.1618C184.805 53.2199 179.077 54.0633 178.247 47.9165C178.175 44.9441 180.625 42.0288 185.588 39.5632C188.317 38.2081 192.449 37.3537 195.052 37.2801C196.923 37.358 196.762 37.1948 197.262 37.7126C198.474 39.9241 199.736 42.0956 201.022 44.3067C200.007 47.2194 191.499 51.8157 189.052 52.1618ZM183.501 34.0508C181.256 35.369 177.3 36.8372 174.268 37.1369C168.753 37.6815 165.129 36.5105 163.613 33.952C161.055 28.3015 166.358 25.9771 170.519 24.6202C172.777 23.615 182.428 22.9966 184.833 24.9274C184.916 27.4836 184.999 29.9933 185.146 32.5117C184.997 33.215 185.046 32.9915 183.501 34.0508ZM186.881 24.9612C201.201 22.0476 199.443 36.8855 186.778 32.7475C186.903 30.2502 186.823 28.1003 186.881 24.9612Z" fill="#F8824E"/>
</g>
<g clip-path="url(#clip4_15_1015)">
<path d="M80.2796 123.447C79.5809 125.848 78.8009 127.853 77.8281 130.839C90.4062 138.279 93.6019 123.683 80.2796 123.447ZM62.2566 125.806C58.7685 123.161 54.5191 119.229 58.7859 114.727C61.0555 112.807 64.8627 112.886 69.8962 115.206C72.6634 116.481 75.9204 119.163 77.6101 121.144C78.7233 122.65 78.7497 122.423 78.66 123.137C77.6976 125.468 76.7978 127.813 75.8823 130.201C72.9773 131.238 64.0613 127.495 62.2566 125.806ZM72.8807 110.123C70.4455 109.201 66.8211 107.041 64.6859 104.868C60.8024 100.914 59.4413 97.3564 60.4835 94.5714C63.2797 89.0348 68.4158 91.7066 72.0829 94.0969C74.2819 95.2248 80.8168 102.353 80.8217 105.438C78.883 107.106 76.9804 108.745 75.1107 110.438C74.4696 110.763 74.6746 110.662 72.8807 110.123ZM82.0797 107.054C93.3309 116.379 80.6719 124.317 75.9507 111.857C77.9746 110.389 79.5984 108.977 82.0797 107.054Z" fill="#F8824E"/>
</g>
<g clip-path="url(#clip5_15_1015)">
<path d="M39.8328 99.5701C39.1317 101.97 38.3497 103.975 37.3739 106.959C49.9445 114.412 53.1549 99.8192 39.8328 99.5701ZM21.8074 101.91C18.322 99.2625 14.0765 95.3262 18.3479 90.8287C20.6194 88.9101 24.4265 88.9936 29.4577 91.3179C32.2236 92.5963 35.4778 95.2817 37.1656 97.2643C38.2773 98.7717 38.3039 98.5444 38.2135 99.2583C37.2487 101.588 36.3466 103.932 35.4287 106.32C32.5227 107.353 23.6104 103.601 21.8074 101.91ZM32.4473 86.2382C30.013 85.3136 26.3907 83.1502 24.2578 80.9747C20.3782 77.0167 19.0207 73.4583 20.0657 70.6743C22.8675 65.1406 28.0009 67.8175 31.6656 70.2114C33.8635 71.3416 40.3912 78.4766 40.393 81.561C38.4526 83.2273 36.5484 84.8642 34.6769 86.5557C34.0355 86.8802 34.2406 86.7788 32.4473 86.2382ZM41.6493 83.1782C52.8912 92.5153 40.2242 100.44 35.5155 87.9756C37.5409 86.5091 39.1661 85.0994 41.6493 83.1782Z" fill="#F8824E"/>
</g>
<g clip-path="url(#clip6_15_1015)">
<path d="M122.756 103.468C123.55 105.839 124.051 107.931 124.953 110.939C139.529 109.886 133.838 96.0703 122.756 103.468ZM109.289 115.675C104.916 115.49 99.1829 114.68 100.124 108.549C100.895 105.677 104.069 103.574 109.527 102.611C112.528 102.083 116.733 102.431 119.25 103.096C121.023 103.7 120.915 103.498 121.248 104.136C121.785 106.6 122.382 109.039 122.991 111.524C121.194 114.031 111.734 116.035 109.289 115.675ZM109.083 96.7338C106.557 97.3636 102.348 97.654 99.3545 97.0845C93.9101 96.0481 90.7647 93.9004 90.0342 91.0179C89.1774 84.8748 94.9205 84.1438 99.296 84.0186C101.746 83.6925 111.178 85.8269 112.939 88.3588C112.297 90.8344 111.667 93.2652 111.095 95.7223C110.754 96.3548 110.865 96.1544 109.083 96.7338ZM114.894 88.97C129.454 90.2227 123.574 103.959 112.594 96.4097C113.421 94.0498 113.951 91.9647 114.894 88.97Z" fill="#F8824E"/>
<g clip-path="url(#clip7_15_1015)">
<path d="M122.756 103.468C123.55 105.839 124.051 107.931 124.953 110.939C139.529 109.886 133.838 96.0703 122.756 103.468ZM109.289 115.675C104.916 115.49 99.1829 114.68 100.124 108.549C100.895 105.677 104.069 103.574 109.527 102.611C112.528 102.083 116.733 102.431 119.25 103.096C121.023 103.7 120.915 103.498 121.248 104.136C121.785 106.6 122.382 109.039 122.991 111.524C121.194 114.031 111.734 116.035 109.289 115.675ZM109.083 96.7338C106.557 97.3636 102.348 97.654 99.3545 97.0845C93.9101 96.0481 90.7647 93.9004 90.0342 91.0179C89.1774 84.8748 94.9205 84.1438 99.296 84.0186C101.746 83.6925 111.178 85.8269 112.939 88.3588C112.297 90.8344 111.667 93.2652 111.095 95.7223C110.754 96.3548 110.865 96.1544 109.083 96.7338ZM114.894 88.97C129.454 90.2227 123.574 103.959 112.594 96.4097C113.421 94.0498 113.951 91.9647 114.894 88.97Z" fill="#F8824E"/>
<g clip-path="url(#clip8_15_1015)">
<path d="M122.756 103.468C123.55 105.839 124.051 107.931 124.953 110.939C139.529 109.886 133.838 96.0703 122.756 103.468ZM109.289 115.675C104.916 115.49 99.1829 114.68 100.124 108.549C100.895 105.677 104.069 103.574 109.527 102.611C112.528 102.083 116.733 102.431 119.25 103.096C121.023 103.7 120.915 103.498 121.248 104.136C121.785 106.6 122.382 109.039 122.991 111.524C121.194 114.031 111.734 116.035 109.289 115.675ZM109.083 96.7338C106.557 97.3636 102.348 97.654 99.3545 97.0845C93.9101 96.0481 90.7647 93.9004 90.0342 91.0179C89.1774 84.8748 94.9205 84.1438 99.296 84.0186C101.746 83.6925 111.178 85.8269 112.939 88.3588C112.297 90.8344 111.667 93.2652 111.095 95.7223C110.754 96.3548 110.865 96.1544 109.083 96.7338ZM114.894 88.97C129.454 90.2227 123.574 103.959 112.594 96.4097C113.421 94.0498 113.951 91.9647 114.894 88.97Z" fill="#F8824E"/>
<g clip-path="url(#clip9_15_1015)">
<path d="M122.756 103.468C123.55 105.839 124.051 107.931 124.953 110.939C139.529 109.886 133.838 96.0703 122.756 103.468ZM109.289 115.675C104.916 115.49 99.1829 114.68 100.124 108.549C100.895 105.677 104.069 103.574 109.527 102.611C112.528 102.083 116.733 102.431 119.25 103.096C121.023 103.7 120.915 103.498 121.248 104.136C121.785 106.6 122.382 109.039 122.991 111.524C121.194 114.031 111.734 116.035 109.289 115.675ZM109.083 96.7338C106.557 97.3636 102.348 97.654 99.3545 97.0845C93.9101 96.0481 90.7647 93.9004 90.0342 91.0179C89.1774 84.8748 94.9205 84.1438 99.296 84.0186C101.746 83.6925 111.178 85.8269 112.939 88.3588C112.297 90.8344 111.667 93.2652 111.095 95.7223C110.754 96.3548 110.865 96.1544 109.083 96.7338ZM114.894 88.97C129.454 90.2227 123.574 103.959 112.594 96.4097C113.421 94.0498 113.951 91.9647 114.894 88.97Z" fill="#F8824E"/>
<g clip-path="url(#clip10_15_1015)">
<path d="M122.756 103.468C123.55 105.839 124.051 107.931 124.953 110.939C139.529 109.886 133.838 96.0703 122.756 103.468ZM109.289 115.675C104.916 115.49 99.1829 114.68 100.124 108.549C100.895 105.677 104.069 103.574 109.527 102.611C112.528 102.083 116.733 102.431 119.25 103.096C121.023 103.7 120.915 103.498 121.248 104.136C121.785 106.6 122.382 109.039 122.991 111.524C121.194 114.031 111.734 116.035 109.289 115.675ZM109.083 96.7338C106.557 97.3636 102.348 97.654 99.3545 97.0845C93.9101 96.0481 90.7647 93.9004 90.0342 91.0179C89.1774 84.8748 94.9205 84.1438 99.296 84.0186C101.746 83.6925 111.178 85.8269 112.939 88.3588C112.297 90.8344 111.667 93.2652 111.095 95.7223C110.754 96.3548 110.865 96.1544 109.083 96.7338ZM114.894 88.97C129.454 90.2227 123.574 103.959 112.594 96.4097C113.421 94.0498 113.951 91.9647 114.894 88.97Z" fill="#F8824E"/>
</g>
</g>
</g>
</g>
</g>
<g clip-path="url(#clip11_15_1015)">
<path d="M157.665 62.1336C159.945 63.1605 161.822 64.2127 164.642 65.5924C173.765 54.1754 159.757 48.9745 157.665 62.1336ZM157.486 80.3094C154.381 83.3944 149.894 87.0537 146.032 82.2005C144.446 79.6852 145.056 75.9263 148.055 71.2656C149.705 68.7034 152.815 65.8526 155.012 64.4557C156.659 63.5636 156.438 63.5057 157.132 63.6942C159.306 64.9724 161.502 66.1905 163.739 67.4303C164.361 70.4515 159.41 78.758 157.486 80.3094ZM143.439 67.6011C142.186 69.8839 139.541 73.1715 137.091 74.9825C132.634 78.2764 128.922 79.1279 126.31 77.7073C121.217 74.166 124.58 69.4529 127.458 66.1552C128.882 64.135 136.852 58.6586 139.907 59.0841C141.289 61.2366 142.646 63.3492 144.062 65.437C144.295 66.1171 144.222 65.9 143.439 67.6011ZM141.683 58.0639C152.487 48.2239 158.581 61.8665 145.584 64.8031C144.413 62.5942 143.242 60.7893 141.683 58.0639Z" fill="#F8824E"/>
</g>
<defs>
<clipPath id="clip0_15_1015">
<rect width="41.0411" height="43.7001" fill="white" transform="matrix(-0.810134 0.586245 0.586245 0.810134 312.265 72.9006)"/>
</clipPath>
<clipPath id="clip1_15_1015">
<rect width="41.0411" height="43.7001" fill="white" transform="matrix(-0.810134 0.586245 0.586245 0.810134 282.859 36.144)"/>
</clipPath>
<clipPath id="clip2_15_1015">
<rect width="43.8541" height="46.6954" fill="white" transform="matrix(-0.470568 0.882364 0.882364 0.470568 229.294 0)"/>
</clipPath>
<clipPath id="clip3_15_1015">
<rect width="43.8541" height="46.6954" fill="white" transform="matrix(0.276035 0.961148 0.961148 -0.276035 157.15 22.0786)"/>
</clipPath>
<clipPath id="clip4_15_1015">
<rect width="43.8541" height="46.6954" fill="white" transform="matrix(-0.575444 0.817841 0.817841 0.575444 65.6768 82.0898)"/>
</clipPath>
<clipPath id="clip5_15_1015">
<rect width="43.8541" height="46.6954" fill="white" transform="matrix(-0.576265 0.817263 0.817263 0.576265 25.2714 58.198)"/>
</clipPath>
<clipPath id="clip6_15_1015">
<rect width="43.8541" height="46.6954" fill="white" transform="matrix(-0.00687899 0.999976 0.999976 0.00687899 87.1898 77.8018)"/>
</clipPath>
<clipPath id="clip7_15_1015">
<rect width="43.8541" height="46.6954" fill="white" transform="matrix(-0.00687899 0.999976 0.999976 0.00687899 87.1898 77.8018)"/>
</clipPath>
<clipPath id="clip8_15_1015">
<rect width="43.8541" height="46.6954" fill="white" transform="matrix(-0.00687899 0.999976 0.999976 0.00687899 87.1898 77.8018)"/>
</clipPath>
<clipPath id="clip9_15_1015">
<rect width="43.8541" height="46.6954" fill="white" transform="matrix(-0.00687899 0.999976 0.999976 0.00687899 87.1898 77.8018)"/>
</clipPath>
<clipPath id="clip10_15_1015">
<rect width="43.8541" height="46.6954" fill="white" transform="matrix(-0.00687899 0.999976 0.999976 0.00687899 87.1898 77.8018)"/>
</clipPath>
<clipPath id="clip11_15_1015">
<rect width="43.8541" height="46.6954" fill="white" transform="matrix(0.729555 0.683922 0.683922 -0.729555 114.675 70.8235)"/>
</clipPath>
</defs>
</svg>
