<svg width="107" height="113" viewBox="0 0 107 113" fill="none" xmlns="http://www.w3.org/2000/svg">
<g clip-path="url(#clip0_15_1020)">
<path fill-rule="evenodd" clip-rule="evenodd" d="M94.9375 59.2085C94.9375 82.1626 76.3291 100.771 53.375 100.771C30.4206 100.771 11.8125 82.1626 11.8125 59.2085C11.8125 36.2541 30.4206 17.646 53.375 17.646C76.3291 17.646 94.9375 36.2541 94.9375 59.2085ZM103.25 59.2085C103.25 86.7539 80.9204 109.083 53.375 109.083C25.8298 109.083 3.5 86.7539 3.5 59.2085C3.5 31.6633 25.8298 9.3335 53.375 9.3335C80.9204 9.3335 103.25 31.6633 103.25 59.2085ZM38.8281 50.896C42.2713 50.896 45.0625 48.1048 45.0625 44.6616C45.0625 41.2185 42.2713 38.4272 38.8281 38.4272C35.385 38.4272 32.5938 41.2185 32.5938 44.6616C32.5938 48.1048 35.385 50.896 38.8281 50.896ZM74.1562 44.6616C74.1562 48.1048 71.3649 50.896 67.9219 50.896C64.4788 50.896 61.6875 48.1048 61.6875 44.6616C61.6875 41.2185 64.4788 38.4272 67.9219 38.4272C71.3649 38.4272 74.1562 41.2185 74.1562 44.6616ZM53.375 75.8335C43.2797 75.8335 36.75 69.4334 36.75 63.3647H28.4375C28.4375 75.6595 40.5158 84.146 53.375 84.146C66.2344 84.146 78.3125 75.6595 78.3125 63.3647H70C70 69.4334 63.4703 75.8335 53.375 75.8335Z" fill="white"/>
</g>
<defs>
<clipPath id="clip0_15_1020">
<rect width="106.75" height="112" fill="white" transform="translate(0 0.583496)"/>
</clipPath>
</defs>
</svg>
