<svg width="108" height="108" viewBox="0 0 108 108" fill="none" xmlns="http://www.w3.org/2000/svg">
<path d="M60.1648 52.5382L56.9034 55.7996L53.6421 52.5448L47.1293 46.0321L50.3807 42.7807L56.8935 49.2935L73.1703 33.0066L76.4317 36.258L60.1648 52.5382Z" fill="#26FF26"/>
<path d="M76.4417 72.2856H48.8099V76.8882H76.4417V72.2856Z" fill="#F41F1F"/>
<path d="M7.36398 20.0275V98.9293H90.2593V20.0275H7.36398ZM85.4937 94.7361L12.0031 94.5431L12.0797 24.7432H85.5503L85.4937 94.7361ZM21.1782 37.3694V55.7861H39.5949V37.3694H21.1782ZM34.9858 51.1769H25.7807V41.9719H34.9858V51.1769ZM21.1715 65.2208V83.6375H39.5883V65.2308L21.1715 65.2208ZM34.9858 79.045H25.7807V69.8433H34.9858V79.045ZM100.546 9.41479V88.25H95.7836L95.7171 14.237L21.1715 14.1404V9.41479H100.546Z" fill="white"/>
</svg>
