<svg width="33" height="33" viewBox="0 0 33 33" fill="none" xmlns="http://www.w3.org/2000/svg">
<g clip-path="url(#clip0_28_358)">
<path d="M32.2867 12.8869L17.2866 0.886856C17.1093 0.744852 16.8889 0.66748 16.6616 0.66748C16.4344 0.66748 16.214 0.744852 16.0366 0.886856L1.03665 12.8869C0.874826 13.0167 0.757388 13.1936 0.700604 13.3932C0.643819 13.5927 0.650499 13.8049 0.719718 14.0005C0.788937 14.1961 0.917268 14.3653 1.08693 14.4847C1.25659 14.6041 1.45919 14.6677 1.66665 14.6669H3.66665V31.6669C3.66665 31.9321 3.772 32.1864 3.95954 32.374C4.14708 32.5615 4.40143 32.6669 4.66665 32.6669H24.6667V30.6669H20.6666V21.6669C20.6666 21.4016 20.5613 21.1473 20.3738 20.9597C20.1862 20.7722 19.9319 20.6669 19.6666 20.6669H13.6666C13.4014 20.6669 13.1471 20.7722 12.9595 20.9597C12.772 21.1473 12.6666 21.4016 12.6666 21.6669V30.6669H5.66665V14.6669H22.6666V12.6669H4.51665L16.6666 2.94686L28.8167 12.6669H28.6667C28.4014 12.6669 28.1471 12.7722 27.9595 12.9598C27.772 13.1473 27.6667 13.4016 27.6667 13.6669V19.6669H29.6667V14.6669H31.6667C31.8733 14.6657 32.0744 14.6005 32.2425 14.4804C32.4106 14.3602 32.5373 14.1909 32.6052 13.9958C32.6732 13.8007 32.6791 13.5893 32.622 13.3907C32.565 13.1922 32.4478 13.0161 32.2867 12.8869ZM14.6666 22.6669H18.6666V30.6669H14.6666V22.6669Z" fill="white"/>
<path d="M25.6664 27.2573L24.3764 25.9673L22.9664 27.3773L24.9664 29.3773C25.1538 29.5635 25.4072 29.6681 25.6714 29.6681C25.9356 29.6681 26.1891 29.5635 26.3764 29.3773L32.3764 23.3773L30.9664 21.9673L25.6664 27.2573Z" fill="white"/>
</g>
<defs>
<clipPath id="clip0_28_358">
<rect width="32" height="32" fill="white" transform="translate(0.666321 0.666992)"/>
</clipPath>
</defs>
</svg>
