<svg width="34" height="34" viewBox="0 0 34 34" fill="none" xmlns="http://www.w3.org/2000/svg">
<path fill-rule="evenodd" clip-rule="evenodd" d="M10.5034 1.62118C12.1539 1.5452 12.6801 1.52832 16.8843 1.52832C21.0885 1.52832 21.6147 1.54661 23.2638 1.62118C24.9128 1.69576 26.0384 1.95887 27.0233 2.34018C28.0547 2.72992 28.9904 3.33916 29.7642 4.1271C30.5522 4.89956 31.16 5.83383 31.5483 6.86658C31.931 7.8515 32.1928 8.97713 32.2687 10.6233C32.3447 12.2766 32.3616 12.8028 32.3616 17.0056C32.3616 21.2098 32.3433 21.7361 32.2687 23.3865C32.1942 25.0327 31.931 26.1583 31.5483 27.1433C31.16 28.1762 30.5511 29.112 29.7642 29.8856C28.9904 30.6735 28.0547 31.2813 27.0233 31.6697C26.0384 32.0524 24.9128 32.3141 23.2666 32.3901C21.6147 32.466 21.0885 32.4829 16.8843 32.4829C12.6801 32.4829 12.1539 32.4646 10.5034 32.3901C8.85719 32.3155 7.73157 32.0524 6.74665 31.6697C5.71378 31.2813 4.77797 30.6724 4.00436 29.8856C3.21695 29.1126 2.60762 28.1773 2.21884 27.1447C1.83753 26.1597 1.57583 25.0341 1.49985 23.3879C1.42387 21.7346 1.40698 21.2084 1.40698 17.0056C1.40698 12.8014 1.42527 12.2752 1.49985 10.6262C1.57442 8.97713 1.83753 7.8515 2.21884 6.86658C2.60819 5.83394 3.21799 4.89859 4.00576 4.12569C4.77828 3.33846 5.71315 2.72914 6.74525 2.34018C7.73017 1.95887 8.85579 1.69716 10.502 1.62118H10.5034ZM23.1385 4.4071C21.5064 4.33253 21.0167 4.31705 16.8843 4.31705C12.7518 4.31705 12.2622 4.33253 10.63 4.4071C9.12031 4.47604 8.30142 4.7279 7.75549 4.94036C7.03369 5.22177 6.51731 5.55523 5.9756 6.09694C5.4621 6.59651 5.06692 7.20467 4.81902 7.87683C4.60656 8.42276 4.35471 9.24165 4.28576 10.7514C4.21119 12.3835 4.19571 12.8732 4.19571 17.0056C4.19571 21.1381 4.21119 21.6277 4.28576 23.2599C4.35471 24.7696 4.60656 25.5885 4.81902 26.1344C5.06666 26.8056 5.46204 27.4148 5.9756 27.9143C6.4751 28.4279 7.08434 28.8233 7.75549 29.0709C8.30142 29.2834 9.12031 29.5352 10.63 29.6042C12.2622 29.6787 12.7504 29.6942 16.8843 29.6942C21.0181 29.6942 21.5064 29.6787 23.1385 29.6042C24.6483 29.5352 25.4672 29.2834 26.0131 29.0709C26.7349 28.7895 27.2513 28.456 27.793 27.9143C28.3065 27.4148 28.7019 26.8056 28.9496 26.1344C29.162 25.5885 29.4139 24.7696 29.4828 23.2599C29.5574 21.6277 29.5729 21.1381 29.5729 17.0056C29.5729 12.8732 29.5574 12.3835 29.4828 10.7514C29.4139 9.24165 29.162 8.42276 28.9496 7.87683C28.6681 7.15502 28.3347 6.63865 27.793 6.09694C27.2934 5.58348 26.6852 5.1883 26.0131 4.94036C25.4672 4.7279 24.6483 4.47604 23.1385 4.4071ZM14.9074 21.7769C16.0115 22.2364 17.2408 22.2985 18.3855 21.9523C19.5302 21.6062 20.5192 20.8734 21.1836 19.8791C21.848 18.8848 22.1467 17.6907 22.0284 16.5007C21.9102 15.3106 21.3826 14.1986 20.5355 13.3544C19.9956 12.8148 19.3427 12.4016 18.6238 12.1446C17.905 11.8875 17.1382 11.7931 16.3785 11.868C15.6188 11.943 14.8851 12.1854 14.2304 12.5779C13.5756 12.9704 13.016 13.5032 12.5919 14.1379C12.1677 14.7726 11.8896 15.4935 11.7775 16.2486C11.6654 17.0037 11.7221 17.7743 11.9436 18.5048C12.165 19.2354 12.5457 19.9078 13.0582 20.4736C13.5707 21.0393 14.2022 21.4845 14.9074 21.7769ZM11.259 11.3803C11.9977 10.6416 12.8747 10.0556 13.8399 9.65582C14.8051 9.25603 15.8396 9.05025 16.8843 9.05025C17.929 9.05025 18.9635 9.25603 19.9287 9.65582C20.8939 10.0556 21.7709 10.6416 22.5096 11.3803C23.2483 12.1191 23.8343 12.996 24.2341 13.9612C24.6339 14.9264 24.8397 15.9609 24.8397 17.0056C24.8397 18.0503 24.6339 19.0848 24.2341 20.05C23.8343 21.0152 23.2483 21.8922 22.5096 22.6309C21.0177 24.1228 18.9942 24.961 16.8843 24.961C14.7744 24.961 12.7509 24.1228 11.259 22.6309C9.76707 21.139 8.92892 19.1155 8.92892 17.0056C8.92892 14.8957 9.76707 12.8723 11.259 11.3803ZM26.604 10.235C26.7871 10.0623 26.9336 9.85466 27.035 9.62432C27.1364 9.39398 27.1905 9.14564 27.1942 8.89401C27.1978 8.64238 27.151 8.39257 27.0564 8.15938C26.9618 7.92618 26.8213 7.71433 26.6434 7.53638C26.4654 7.35844 26.2536 7.218 26.0204 7.12339C25.7872 7.02878 25.5374 6.98193 25.2857 6.98559C25.0341 6.98926 24.7858 7.04338 24.5554 7.14475C24.3251 7.24611 24.1174 7.39266 23.9448 7.57573C23.6089 7.93175 23.425 8.40464 23.4322 8.89401C23.4393 9.38339 23.6369 9.85072 23.983 10.1968C24.329 10.5429 24.7964 10.7405 25.2857 10.7476C25.7751 10.7547 26.248 10.5709 26.604 10.235Z" fill="white"/>
</svg>
