<svg width="38" height="31" viewBox="0 0 38 31" fill="none" xmlns="http://www.w3.org/2000/svg">
<path d="M2 9.78087C2 1.53418 11.0916 1.53418 18.8843 1.53418C26.6771 1.53418 35.7687 1.53418 35.7687 9.78087C35.7687 19.2057 26.6771 8.60277 26.6771 8.60277H11.0916C11.0916 8.60277 2 19.2057 2 9.78087ZM12.3904 12.1371C12.3904 12.1371 5.89638 18.0276 5.89638 28.6305H31.8723C31.8723 18.0276 25.3783 12.1371 25.3783 12.1371H12.3904Z" stroke="white" stroke-width="2.81406" stroke-linecap="round" stroke-linejoin="round"/>
<path d="M18.8843 25.0951C21.7535 25.0951 24.0795 22.9857 24.0795 20.3835C24.0795 17.7813 21.7535 15.6719 18.8843 15.6719C16.0151 15.6719 13.6891 17.7813 13.6891 20.3835C13.6891 22.9857 16.0151 25.0951 18.8843 25.0951Z" stroke="white" stroke-width="2.81406" stroke-linecap="round" stroke-linejoin="round"/>
</svg>
