<svg width="30" height="31" viewBox="0 0 30 31" fill="none" xmlns="http://www.w3.org/2000/svg">
<path d="M18.4193 11.392H21.4892V14.1766H18.4193V11.392ZM21.4892 5.82269H18.4193V8.60733H21.4892V5.82269ZM12.2795 19.7459H15.3494V16.9612H12.2795V19.7459ZM15.3494 5.82269H12.2795V8.60733H15.3494V5.82269ZM12.2795 14.1766H15.3494V11.392H12.2795V14.1766ZM9.20964 5.82269H6.13976V8.60733H9.20964V5.82269ZM9.20964 11.392H6.13976V14.1766H9.20964V11.392ZM17.7286 28.0998H15.3494V23.2267H12.2795V28.0998H3.06988V3.03806H24.559V14.2184C25.6488 14.3019 26.6926 14.6082 27.6289 15.0538V0.253418H0V30.8844H19.8161C19.1867 30.1047 18.4193 29.158 17.7286 28.0998ZM6.13976 25.3152H9.20964V22.5305H6.13976V25.3152ZM9.20964 16.9612H6.13976V19.7459H9.20964V16.9612ZM29.1638 21.8344C29.1638 25.4544 23.7916 30.8844 23.7916 30.8844C23.7916 30.8844 18.4193 25.4544 18.4193 21.8344C18.4193 19.189 20.8752 16.9612 23.7916 16.9612C26.7079 16.9612 29.1638 19.189 29.1638 21.8344ZM25.6335 21.9736C25.6335 21.1382 24.7125 20.3028 23.7916 20.3028C22.8706 20.3028 21.9496 20.999 21.9496 21.9736C21.9496 22.809 22.7171 23.6444 23.7916 23.6444C24.866 23.6444 25.787 22.809 25.6335 21.9736Z" fill="white"/>
</svg>
