<svg width="35" height="22" viewBox="0 0 35 22" fill="none" xmlns="http://www.w3.org/2000/svg">
<path d="M32.2453 0.00146484H3.30072C2.661 0.00146484 2.04749 0.231975 1.59514 0.642286C1.1428 1.0526 0.888672 1.6091 0.888672 2.18937V19.6926C0.888672 20.2728 1.1428 20.8293 1.59514 21.2397C2.04749 21.65 2.661 21.8805 3.30072 21.8805H32.2453C32.885 21.8805 33.4985 21.65 33.9509 21.2397C34.4032 20.8293 34.6573 20.2728 34.6573 19.6926V2.18937C34.6573 1.6091 34.4032 1.0526 33.9509 0.642286C33.4985 0.231975 32.885 0.00146484 32.2453 0.00146484ZM29.592 2.18937L17.773 9.60635L5.95397 2.18937H29.592ZM3.30072 19.6926V3.18486L17.0856 11.838C17.2875 11.965 17.5273 12.0331 17.773 12.0331C18.0187 12.0331 18.2586 11.965 18.4604 11.838L32.2453 3.18486V19.6926H3.30072Z" fill="white"/>
</svg>
