<svg width="40" height="38" viewBox="0 0 40 38" fill="none" xmlns="http://www.w3.org/2000/svg">
<path d="M18.4179 2.05009C18.9387 0.881483 19.1993 0.29718 19.562 0.117247C19.877 -0.0390825 20.2469 -0.0390825 20.5619 0.117247C20.9246 0.29718 21.1851 0.881483 21.706 2.05009L25.855 11.3582C26.0091 11.7036 26.0861 11.8764 26.2053 12.0087C26.3106 12.1257 26.4396 12.2193 26.5833 12.2834C26.746 12.3559 26.9341 12.3757 27.3103 12.4154L37.445 13.4851C38.7174 13.6193 39.3534 13.6865 39.6367 13.9758C39.8826 14.2271 39.9969 14.579 39.9456 14.9269C39.8867 15.3274 39.4115 15.7556 38.4611 16.6122L30.8905 23.4346C30.6097 23.6878 30.4691 23.8144 30.3802 23.9686C30.3015 24.1051 30.2522 24.2566 30.2358 24.4132C30.2171 24.5902 30.2562 24.7752 30.3348 25.1453L32.4493 35.1144C32.7148 36.3661 32.8476 36.9918 32.6599 37.3504C32.4968 37.6623 32.1975 37.8796 31.8508 37.9384C31.4517 38.0059 30.8975 37.6864 29.7891 37.0471L20.9613 31.9554C20.6337 31.7664 20.4699 31.6721 20.2957 31.635C20.1416 31.6024 19.9823 31.6024 19.8282 31.635C19.654 31.6721 19.4902 31.7664 19.1626 31.9554L10.3348 37.0471C9.22647 37.6864 8.67232 38.0059 8.27314 37.9384C7.9264 37.8796 7.62706 37.6623 7.46407 37.3504C7.27644 36.9918 7.40917 36.3661 7.67464 35.1144L9.7891 25.1453C9.86758 24.7752 9.90682 24.5902 9.88819 24.4132C9.8717 24.2566 9.82249 24.1051 9.74374 23.9686C9.65476 23.8144 9.51427 23.6878 9.23331 23.4346L1.66291 16.6122C0.712491 15.7556 0.237269 15.3274 0.178184 14.9269C0.126884 14.579 0.241207 14.2271 0.487222 13.9758C0.770452 13.6865 1.40664 13.6193 2.67901 13.4851L12.8137 12.4154C13.1898 12.3757 13.3779 12.3559 13.5405 12.2834C13.6844 12.2193 13.8132 12.1257 13.9187 12.0087C14.0378 11.8764 14.1148 11.7036 14.2688 11.3582L18.4179 2.05009Z" fill="url(#paint0_linear_15_700)"/>
<defs>
<linearGradient id="paint0_linear_15_700" x1="0.999878" y1="14.5" x2="44.9999" y2="14.5" gradientUnits="userSpaceOnUse">
<stop stop-color="#FFB60B"/>
<stop offset="0.467835" stop-color="#FFB60B" stop-opacity="0"/>
</linearGradient>
</defs>
</svg>
