<svg width="40" height="38" viewBox="0 0 40 38" fill="none" xmlns="http://www.w3.org/2000/svg">
<path d="M18.2517 2.05009C18.7726 0.881483 19.0331 0.29718 19.3958 0.117247C19.7108 -0.0390825 20.0807 -0.0390825 20.3957 0.117247C20.7584 0.29718 21.019 0.881483 21.5399 2.05009L25.6889 11.3582C25.843 11.7036 25.9199 11.8764 26.0392 12.0087C26.1445 12.1257 26.2734 12.2193 26.4172 12.2834C26.5799 12.3559 26.768 12.3757 27.1442 12.4154L37.2788 13.4851C38.5512 13.6193 39.1873 13.6865 39.4706 13.9758C39.7165 14.2271 39.8308 14.579 39.7795 14.9269C39.7205 15.3274 39.2453 15.7556 38.2949 16.6122L30.7244 23.4346C30.4436 23.6878 30.3029 23.8144 30.2141 23.9686C30.1353 24.1051 30.086 24.2566 30.0696 24.4132C30.0509 24.5902 30.0901 24.7752 30.1686 25.1453L32.2832 35.1144C32.5487 36.3661 32.6814 36.9918 32.4938 37.3504C32.3306 37.6623 32.0314 37.8796 31.6847 37.9384C31.2855 38.0059 30.7313 37.6864 29.623 37.0471L20.7951 31.9554C20.4675 31.7664 20.3037 31.6721 20.1296 31.635C19.9754 31.6024 19.8161 31.6024 19.662 31.635C19.4879 31.6721 19.3241 31.7664 18.9965 31.9554L10.1686 37.0471C9.06033 37.6864 8.50618 38.0059 8.10701 37.9384C7.76026 37.8796 7.46092 37.6623 7.29793 37.3504C7.1103 36.9918 7.24303 36.3661 7.50851 35.1144L9.62297 25.1453C9.70145 24.7752 9.74068 24.5902 9.72206 24.4132C9.70556 24.2566 9.65636 24.1051 9.57761 23.9686C9.48862 23.8144 9.34813 23.6878 9.06717 23.4346L1.49678 16.6122C0.546354 15.7556 0.0711314 15.3274 0.0120464 14.9269C-0.0392536 14.579 0.0750691 14.2271 0.321084 13.9758C0.604314 13.6865 1.2405 13.6193 2.51288 13.4851L12.6475 12.4154C13.0237 12.3757 13.2117 12.3559 13.3744 12.2834C13.5183 12.2193 13.6471 12.1257 13.7525 12.0087C13.8717 11.8764 13.9487 11.7036 14.1027 11.3582L18.2517 2.05009Z" fill="#FFB60B"/>
</svg>
