<svg width="30" height="30" viewBox="0 0 30 30" fill="none" xmlns="http://www.w3.org/2000/svg">
<path d="M15.3332 -0.000488281C11.3461 -0.000488281 10.8492 0.0187641 9.28883 0.0847724C7.72205 0.161782 6.66225 0.404729 5.72714 0.767774C4.76268 1.14549 3.94125 1.64697 3.12989 2.4629C2.31304 3.27425 1.80698 4.09569 1.43477 5.06014C1.07172 5.99526 0.828774 7.05506 0.751765 8.62184C0.681172 10.1831 0.666504 10.6791 0.666504 14.6662C0.666504 18.6533 0.685756 19.1502 0.751765 20.7105C0.828774 22.2727 1.07172 23.3371 1.43477 24.2722C1.81248 25.2367 2.31396 26.0581 3.12989 26.8695C3.94125 27.6863 4.76268 28.1924 5.72714 28.5646C6.66225 28.923 7.72664 29.1706 9.28883 29.2476C10.8501 29.3182 11.3461 29.3328 15.3332 29.3328C19.3203 29.3328 19.8171 29.3136 21.3775 29.2476C22.9397 29.1706 24.0041 28.9221 24.9392 28.5646C25.9037 28.1869 26.7251 27.6854 27.5364 26.8695C28.3533 26.0581 28.8594 25.2412 29.2316 24.2722C29.59 23.3371 29.8376 22.2727 29.9146 20.7105C29.9852 19.1492 29.9998 18.6533 29.9998 14.6662C29.9998 10.6791 29.9806 10.1822 29.9146 8.62184C29.8376 7.05964 29.5891 5.98976 29.2316 5.06014C28.8539 4.09569 28.3524 3.27425 27.5364 2.4629C26.7251 1.64605 25.9082 1.13999 24.9392 0.767774C24.0041 0.404729 22.9397 0.161782 21.3775 0.0847724C19.8162 0.0141802 19.3203 -0.000488281 15.3332 -0.000488281ZM15.3332 2.63984C19.2487 2.63984 19.7163 2.65909 21.2638 2.7251C22.6913 2.79203 23.4687 3.03039 23.9848 3.23208C24.6733 3.49887 25.1546 3.81424 25.6754 4.32947C26.186 4.84012 26.5014 5.32693 26.7682 6.01543C26.9699 6.53158 27.2082 7.30901 27.2752 8.73644C27.3412 10.284 27.3604 10.7524 27.3604 14.6671C27.3604 18.5818 27.3412 19.0502 27.2697 20.5978C27.1926 22.0252 26.9543 22.8026 26.7535 23.3188C26.4757 24.0073 26.1659 24.4886 25.6543 25.0093C25.1381 25.52 24.6467 25.8353 23.9637 26.1021C23.454 26.3038 22.6656 26.5422 21.2327 26.6091C19.6769 26.6751 19.2185 26.6943 15.2928 26.6943C11.3672 26.6943 10.9097 26.6751 9.35209 26.6036C7.92466 26.5266 7.13715 26.2882 6.621 26.0874C5.92424 25.8097 5.4466 25.4998 4.93504 24.9882C4.41889 24.4721 4.09068 23.9807 3.83765 23.2977C3.63229 22.7879 3.39759 21.9995 3.3215 20.5666C3.26925 19.0291 3.24449 18.5524 3.24449 14.6451C3.24449 10.7396 3.26925 10.262 3.3215 8.70527C3.39759 7.27234 3.63229 6.48574 3.83765 5.97418C4.09068 5.2765 4.41981 4.79978 4.93504 4.28363C5.44568 3.77298 5.92424 3.44294 6.621 3.18441C7.13715 2.98363 7.90541 2.74527 9.33834 2.67376C10.8941 2.61784 11.3525 2.59767 15.2727 2.59767L15.3332 2.63984ZM15.3332 7.13849C11.1701 7.13849 7.80365 10.5095 7.80365 14.668C7.80365 18.8311 11.1747 22.1975 15.3332 22.1975C19.4963 22.1975 22.8627 18.8265 22.8627 14.668C22.8627 10.5049 19.4917 7.13849 15.3332 7.13849ZM15.3332 19.5572C12.6305 19.5572 10.444 17.3707 10.444 14.668C10.444 11.9653 12.6305 9.77882 15.3332 9.77882C18.0358 9.77882 20.2224 11.9653 20.2224 14.668C20.2224 17.3707 18.0358 19.5572 15.3332 19.5572ZM24.9264 6.83778C24.9264 7.81232 24.1334 8.59892 23.1634 8.59892C22.1889 8.59892 21.4023 7.8114 21.4023 6.83778C21.4023 5.86875 22.1944 5.08031 23.1634 5.08031C24.1324 5.08031 24.9264 5.86875 24.9264 6.83778Z" fill="#181F37"/>
</svg>
