<svg width="30" height="30" viewBox="0 0 30 30" fill="none" xmlns="http://www.w3.org/2000/svg">
<path d="M6.56647 29.3339H0.484821V9.749H6.56647V29.3339ZM3.52198 7.07748C1.57753 7.07748 -0.000244141 5.46618 -0.000244141 3.52173C-0.000244141 1.57728 1.57648 -0.000488281 3.52198 -0.000488281C5.46747 -0.000488281 7.0442 1.57623 7.0442 3.52173C7.0442 5.46618 5.46643 7.07748 3.52198 7.07748ZM29.3278 29.3339H23.2598V19.8002C23.2598 17.5279 23.2137 14.6143 20.098 14.6143C16.9362 14.6143 16.4511 17.0826 16.4511 19.6368V29.3339H10.3757V9.749H16.208V12.4205H16.2929C17.1048 10.8815 19.0881 9.25765 22.0466 9.25765C28.2016 9.25765 29.3331 13.311 29.3331 18.5755V29.3339H29.3278Z" fill="#181F37"/>
</svg>
