<svg width="27" height="27" viewBox="0 0 27 27" fill="none" xmlns="http://www.w3.org/2000/svg">
<path d="M26.2375 3.10451L26.1934 3.07699L20.6247 0.333496L14.6142 8.3475L17.3795 12.0348C17.2967 13.4254 16.707 14.7373 15.722 15.7223C14.737 16.7074 13.425 17.297 12.0344 17.3798L8.34721 14.6145L0.333267 20.6249L3.05393 26.147L3.07682 26.1937L3.10441 26.2376C3.2496 26.4716 3.45224 26.6645 3.69306 26.7979C3.93388 26.9314 4.20484 27.001 4.48017 27.0002H5.9171C8.68574 27.0002 11.4273 26.4548 13.9852 25.3953C16.5431 24.3358 18.8672 22.7828 20.8249 20.8251C22.7827 18.8674 24.3356 16.5432 25.3951 13.9853C26.4546 11.4274 26.9999 8.6859 26.9999 5.91726V4.48027C27.0008 4.20495 26.9312 3.93398 26.7977 3.69317C26.6643 3.45235 26.4714 3.2497 26.2375 3.10451ZM24.942 5.91726C24.942 16.4077 16.4074 24.9423 5.9171 24.9423H4.75439L2.93405 21.2469L8.34759 17.1867L11.3616 19.4471H11.7045C13.7573 19.4448 15.7254 18.6283 17.177 17.1768C18.6285 15.7252 19.445 13.7571 19.4473 11.7043V11.3613L17.1869 8.34744L21.2466 2.93422L24.942 4.75487V5.91726Z" fill="#2B2B2B"/>
</svg>
