<svg width="71" height="71" viewBox="0 0 71 71" fill="none" xmlns="http://www.w3.org/2000/svg">
<path d="M50.3396 0.083374H20.6605C7.76879 0.083374 0.083374 7.76879 0.083374 20.6605V50.3042C0.083374 63.2313 7.76879 70.9167 20.6605 70.9167H50.3042C63.1959 70.9167 70.8813 63.2313 70.8813 50.3396V20.6605C70.9167 7.76879 63.2313 0.083374 50.3396 0.083374ZM47.4 43.6459C48.4271 44.673 48.4271 46.373 47.4 47.4C46.8688 47.9313 46.1959 48.1792 45.523 48.1792C44.85 48.1792 44.1771 47.9313 43.6459 47.4L35.5 39.2542L27.3542 47.4C26.823 47.9313 26.15 48.1792 25.4771 48.1792C24.8042 48.1792 24.1313 47.9313 23.6 47.4C22.573 46.373 22.573 44.673 23.6 43.6459L31.7459 35.5L23.6 27.3542C22.573 26.3271 22.573 24.6271 23.6 23.6C24.6271 22.573 26.3271 22.573 27.3542 23.6L35.5 31.7459L43.6459 23.6C44.673 22.573 46.373 22.573 47.4 23.6C48.4271 24.6271 48.4271 26.3271 47.4 27.3542L39.2542 35.5L47.4 43.6459Z" fill="#181F37"/>
</svg>
