<svg width="45" height="45" viewBox="0 0 45 45" fill="none" xmlns="http://www.w3.org/2000/svg">
<path d="M5.69259 38.5455C5.51576 40.5324 6.98299 42.2863 8.96986 42.4632C10.9567 42.64 12.7106 41.1727 12.8875 39.1859C13.0643 37.1991 11.5971 35.4451 9.6102 35.2683" stroke="#535763" stroke-width="2.70875" stroke-linecap="round"/>
<path d="M21.9309 42.4774C23.9256 42.4774 25.5426 40.8604 25.5426 38.8658C25.5426 36.8711 23.9256 35.2541 21.9309 35.2541C19.9363 35.2541 18.3193 36.8711 18.3193 38.8658C18.3193 40.8604 19.9363 42.4774 21.9309 42.4774Z" stroke="#535763" stroke-width="2.70875"/>
<path d="M38.1835 38.8658C38.1835 40.8605 36.5665 42.4774 34.5718 42.4774C32.5771 42.4774 30.9601 40.8605 30.9601 38.8658C30.9601 36.871 32.5771 35.2541 34.5718 35.2541" stroke="#535763" stroke-width="2.70875" stroke-linecap="round"/>
<g clip-path="url(#clip0_161_408)">
<path d="M1.86066 22.5279C1.86066 12.8626 1.86066 8.02996 4.86329 5.02735C7.8659 2.02472 12.6985 2.02472 22.3639 2.02472C32.0291 2.02472 36.8619 2.02472 39.8644 5.02735C42.867 8.02996 42.8671 12.8626 42.8671 22.5279C42.8671 32.1931 42.867 37.0259 39.8644 40.0284C36.8619 43.0311 32.0291 43.0311 22.3639 43.0311C12.6985 43.0311 7.8659 43.0311 4.86329 40.0284C1.86066 37.0259 1.86066 32.1931 1.86066 22.5279Z" stroke="#535763" stroke-width="3.07548"/>
<path fill-rule="evenodd" clip-rule="evenodd" d="M34.9533 22.528C34.9533 29.8688 29.4127 35.8197 22.5782 35.8197C15.7437 35.8197 10.2032 29.8688 10.2032 22.528C10.2032 15.1872 15.7437 9.23627 22.5782 9.23627C29.4127 9.23627 34.9533 15.1872 34.9533 22.528ZM26.2908 18.5405C26.2908 20.7428 24.6287 22.528 22.5782 22.528C20.5278 22.528 18.8657 20.7428 18.8657 18.5405C18.8657 16.3382 20.5278 14.553 22.5782 14.553C24.6287 14.553 26.2908 16.3382 26.2908 18.5405ZM22.5782 33.826C24.786 33.826 26.8349 33.0955 28.5268 31.8471C29.2741 31.2958 29.5934 30.2454 29.1591 29.3908C28.2584 27.6191 26.4024 26.5155 22.5781 26.5155C18.754 26.5155 16.8981 27.619 15.9974 29.3908C15.5629 30.2454 15.8822 31.2956 16.6295 31.847C18.3214 33.0953 20.3704 33.826 22.5782 33.826Z" fill="#535763"/>
</g>
<defs>
<clipPath id="clip0_161_408">
<rect width="44.6828" height="44.6828" fill="white" transform="translate(0.0223999 0.186584)"/>
</clipPath>
</defs>
</svg>
