<svg width="47" height="48" viewBox="0 0 47 48" fill="none" xmlns="http://www.w3.org/2000/svg">
<g clip-path="url(#clip0_161_5120)">
<path d="M23.2576 10.2202C15.7372 10.2202 9.61963 16.3378 9.61963 23.8581C9.61963 31.3785 15.7372 37.4961 23.2576 37.4961C30.7779 37.4961 36.8956 31.3785 36.8956 23.8581C36.8956 16.3378 30.778 10.2202 23.2576 10.2202ZM30.7958 22.8372L28.1262 25.4406L28.7566 29.1144C28.8542 29.6837 28.6204 30.2578 28.1537 30.5972C27.8894 30.7886 27.5766 30.8862 27.2629 30.8862C27.0211 30.8862 26.7795 30.829 26.5576 30.7116L23.2576 28.9762L19.9576 30.7116C19.4475 30.982 18.829 30.9366 18.3614 30.5971C17.8947 30.2578 17.6609 29.6836 17.7585 29.1143L18.3889 25.4405L15.7193 22.8371C15.3059 22.4336 15.1579 21.8318 15.3355 21.2832C15.5142 20.7347 15.9887 20.3351 16.5588 20.2523L20.2485 19.7166L21.899 16.3732C22.1536 15.8563 22.6803 15.5288 23.2574 15.5288C23.8346 15.5288 24.3613 15.8562 24.6158 16.3732L26.2663 19.7166L29.956 20.2523C30.5263 20.3351 31.0008 20.7347 31.1793 21.2832C31.3571 21.8319 31.2091 22.4337 30.7958 22.8372Z" fill="#535763"/>
<path d="M8.4293 16.2815H1.53775C1.01297 16.2815 0.524577 16.5538 0.248298 16.9997C-0.0269826 17.4466 -0.0526682 18.005 0.182223 18.4746L2.87449 23.8581L0.182223 29.2418C-0.0525774 29.7113 -0.0268918 30.2697 0.248298 30.7167C0.524486 31.1626 1.01288 31.4348 1.53775 31.4348H8.4293C7.26128 29.1587 6.58892 26.5875 6.58892 23.8582C6.58892 21.1289 7.2611 18.5577 8.4293 16.2815Z" fill="#535763"/>
<path d="M46.3326 29.2418L43.6404 23.8582L46.3326 18.4747C46.5674 18.0052 46.5418 17.4467 46.2666 16.9998C45.9904 16.5539 45.502 16.2816 44.9771 16.2816H38.0856C39.2537 18.5578 39.9259 21.1289 39.9259 23.8582C39.9259 26.5875 39.2537 29.1586 38.0856 31.4349H44.9771C45.5019 31.4349 45.9903 31.1626 46.2666 30.7167C46.5419 30.2697 46.5675 29.7115 46.3326 29.2418Z" fill="#535763"/>
</g>
<defs>
<clipPath id="clip0_161_5120">
<rect width="46.4701" height="46.4701" fill="white" transform="translate(0.0223999 0.623138)"/>
</clipPath>
</defs>
</svg>
