<svg width="79" height="79" viewBox="0 0 79 79" fill="none" xmlns="http://www.w3.org/2000/svg">
<path d="M10.0251 67.8194C9.71252 71.3321 12.3066 74.4332 15.8194 74.7458C19.3322 75.0585 22.4332 72.4643 22.7458 68.9515C23.0585 65.4388 20.4644 62.3378 16.9516 62.0251" stroke="#181F37" stroke-width="4.78911" stroke-linecap="round"/>
<path d="M38.7346 74.771C42.2612 74.771 45.1201 71.9121 45.1201 68.3855C45.1201 64.8589 42.2612 62 38.7346 62C35.208 62 32.3491 64.8589 32.3491 68.3855C32.3491 71.9121 35.208 74.771 38.7346 74.771Z" stroke="#181F37" stroke-width="4.78911"/>
<path d="M67.4693 68.3855C67.4693 71.9122 64.6105 74.771 61.0838 74.771C57.5571 74.771 54.6984 71.9122 54.6984 68.3855C54.6984 64.8588 57.5571 62 61.0838 62" stroke="#181F37" stroke-width="4.78911" stroke-linecap="round"/>
<g clip-path="url(#clip0_7_171)">
<path d="M3.25 39.5C3.25 22.4116 3.25 13.8674 8.5587 8.5587C13.8674 3.25 22.4116 3.25 39.5 3.25C56.5882 3.25 65.1327 3.25 70.4412 8.5587C75.75 13.8674 75.75 22.4116 75.75 39.5C75.75 56.5882 75.75 65.1327 70.4412 70.4412C65.1327 75.75 56.5882 75.75 39.5 75.75C22.4116 75.75 13.8674 75.75 8.5587 70.4412C3.25 65.1327 3.25 56.5882 3.25 39.5Z" stroke="#181F37" stroke-width="5.4375"/>
<path fill-rule="evenodd" clip-rule="evenodd" d="M61.7586 39.5C61.7586 52.4786 51.9628 63 39.8793 63C27.7957 63 18 52.4786 18 39.5C18 26.5213 27.7957 16 39.8793 16C51.9628 16 61.7586 26.5213 61.7586 39.5ZM46.4431 32.45C46.4431 36.3437 43.5045 39.5 39.8793 39.5C36.2541 39.5 33.3155 36.3437 33.3155 32.45C33.3155 28.5564 36.2541 25.4 39.8793 25.4C43.5045 25.4 46.4431 28.5564 46.4431 32.45ZM39.8793 59.475C43.7826 59.475 47.4051 58.1834 50.3965 55.9763C51.7178 55.0015 52.2823 53.1446 51.5143 51.6335C49.9219 48.5012 46.6405 46.55 39.8791 46.55C33.1179 46.55 29.8366 48.501 28.2442 51.6335C27.476 53.1446 28.0406 55.0013 29.3618 55.9761C32.3532 58.1832 35.9758 59.475 39.8793 59.475Z" fill="#181F37"/>
</g>
<defs>
<clipPath id="clip0_7_171">
<rect width="79" height="79" fill="white"/>
</clipPath>
</defs>
</svg>
