<svg width="46" height="46" viewBox="0 0 46 46" fill="none" xmlns="http://www.w3.org/2000/svg">
<path d="M29.9598 16.3311H29.9822M29.9598 29.736C37.3631 29.736 43.3647 23.7344 43.3647 16.3311C43.3647 8.92785 37.3631 2.9263 29.9598 2.9263C22.5566 2.9263 16.555 8.92785 16.555 16.3311C16.555 16.9426 16.5959 17.5445 16.6752 18.1342C16.8056 19.1042 16.8708 19.5892 16.8269 19.8959C16.7812 20.2157 16.723 20.3877 16.5655 20.6696C16.4142 20.9402 16.1477 21.2067 15.6147 21.7398L4.19713 33.1574C3.81074 33.5436 3.61753 33.7369 3.47937 33.9623C3.35687 34.1623 3.26661 34.3801 3.21188 34.6082C3.15015 34.8654 3.15015 35.1386 3.15015 35.6848V39.5662C3.15015 40.8176 3.15015 41.4431 3.39365 41.921C3.60785 42.3415 3.94963 42.6831 4.37001 42.8973C4.84792 43.1409 5.47354 43.1408 6.72477 43.1408H10.6061C11.1525 43.1408 11.4257 43.1409 11.6828 43.0792C11.9108 43.0245 12.1287 42.9342 12.3286 42.8115C12.5541 42.6735 12.7473 42.4802 13.1337 42.0939L24.5512 30.6764C25.0843 30.1433 25.3508 29.8768 25.6214 29.7255C25.9033 29.568 26.0753 29.5097 26.395 29.4641C26.7018 29.4201 27.1868 29.4853 28.1569 29.6158C28.7465 29.6951 29.3484 29.736 29.9598 29.736Z" stroke="#535763" stroke-width="4.46828" stroke-linecap="round" stroke-linejoin="round"/>
</svg>
